<?xml version="1.0" encoding="utf-8"?>
<!-- Generator: Adobe Illustrator 27.5.0, SVG Export Plug-In . SVG Version: 6.00 Build 0)  -->
<svg version="1.1" id="confetti" xmlns="http://www.w3.org/2000/svg" xmlns:xlink="http://www.w3.org/1999/xlink" x="0px" y="0px"
	 viewBox="0 0 100 100" style="enable-background:new 0 0 100 100;" xml:space="preserve">
<g id="PlacedGroup">
	<rect id="back" style="fill:#FFFFFF;" width="100" height="100"/>
</g>
<g>
	<defs>
		<rect id="SVGID_1_" width="100" height="100"/>
	</defs>
	<clipPath id="SVGID_00000176007767043542400150000007336085128357325971_">
		<use xlink:href="#SVGID_1_"  style="overflow:visible;"/>
	</clipPath>
	<g style="clip-path:url(#SVGID_00000176007767043542400150000007336085128357325971_);">
		<path style="fill:#4FC1E9;" d="M27.462,52.386c2.088,0.369,3.482,2.36,3.114,4.448c-0.369,2.088-2.36,3.482-4.448,3.114
			c-2.088-0.369-3.482-2.36-3.114-4.449C23.382,53.411,25.373,52.017,27.462,52.386z"/>
		<path style="fill:#261605;" d="M26.879,59.919c0.568,0.024,1.117-0.09,1.6-0.292c0.485-0.203,0.905-0.495,1.245-0.834
			c0.339-0.34,0.603-0.723,0.786-1.118c0.179-0.397,0.289-0.798,0.343-1.185c0.094-0.776-0.035-1.479-0.26-2.041
			c-0.229-0.563-0.539-0.996-0.844-1.324c-0.629-0.646-1.19-0.905-1.541-1.065c-0.089-0.04-0.167-0.076-0.235-0.106
			c-0.069-0.026-0.127-0.05-0.175-0.072c-0.097-0.045-0.157-0.084-0.19-0.122c-0.05-0.057-0.034-0.111,0.089-0.143
			c0.121-0.028,0.355-0.053,0.719,0.029c0.36,0.08,0.869,0.25,1.434,0.675c0.274,0.22,0.575,0.486,0.84,0.847
			c0.142,0.174,0.259,0.379,0.385,0.593c0.054,0.112,0.109,0.227,0.165,0.345c0.056,0.118,0.094,0.247,0.142,0.375l0.045,0.132
			l0.035,0.135l0.066,0.271c0.037,0.182,0.059,0.368,0.081,0.552c0.024,0.372,0.019,0.746-0.043,1.111
			c-0.113,0.729-0.4,1.43-0.826,2.021c-0.43,0.588-0.996,1.058-1.62,1.375c-0.623,0.323-1.316,0.472-1.982,0.47
			c-0.669-0.002-1.312-0.162-1.872-0.438c-0.562-0.276-1.032-0.679-1.385-1.134c-0.354-0.455-0.591-0.966-0.714-1.474
			c-0.123-0.509-0.131-1.015-0.051-1.474c0.162-0.925,0.644-1.649,1.193-2.08c0.272-0.219,0.55-0.384,0.824-0.486
			c0.033-0.014,0.066-0.028,0.099-0.041c0.033-0.012,0.068-0.021,0.101-0.031c0.066-0.02,0.13-0.039,0.193-0.058
			c0.131-0.022,0.248-0.055,0.365-0.064c0.464-0.049,0.814,0.008,1.041,0.071c0.114,0.024,0.198,0.067,0.255,0.082
			c0.056,0.019,0.086,0.029,0.086,0.029s-0.069-0.017-0.198-0.05c-0.065-0.022-0.146-0.031-0.243-0.045
			c-0.097-0.021-0.209-0.022-0.338-0.028c-0.254,0-0.574,0.024-0.929,0.14c-0.354,0.115-0.743,0.322-1.098,0.65
			c-0.184,0.159-0.339,0.361-0.494,0.579c-0.136,0.228-0.275,0.476-0.356,0.758c-0.188,0.556-0.22,1.214-0.046,1.868
			c0.08,0.33,0.233,0.648,0.422,0.953c0.051,0.073,0.094,0.154,0.153,0.223l0.172,0.214c0.127,0.132,0.254,0.27,0.403,0.385
			C25.298,59.584,26.07,59.879,26.879,59.919z"/>
	</g>
	<g style="clip-path:url(#SVGID_00000176007767043542400150000007336085128357325971_);">
		<path style="fill:#F5F7FA;" d="M66.97,41.76c-2.827-0.291-4.882-2.818-4.591-5.645c0.291-2.827,2.818-4.882,5.645-4.592
			c2.827,0.291,4.882,2.818,4.592,5.645C72.325,39.995,69.797,42.051,66.97,41.76z"/>
		<path style="fill:#261605;" d="M67.021,31.635c-0.762,0.023-1.484,0.228-2.111,0.545c-0.628,0.318-1.162,0.75-1.583,1.235
			c-0.421,0.487-0.737,1.024-0.943,1.57c-0.201,0.548-0.309,1.094-0.344,1.616c-0.05,1.047,0.189,1.974,0.544,2.702
			c0.361,0.731,0.817,1.279,1.256,1.687c0.903,0.802,1.678,1.094,2.163,1.274c0.123,0.045,0.23,0.085,0.324,0.119
			c0.094,0.028,0.174,0.054,0.241,0.08c0.134,0.05,0.217,0.097,0.266,0.145c0.073,0.071,0.056,0.145-0.105,0.199
			c-0.16,0.049-0.469,0.105-0.963,0.03c-0.489-0.072-1.186-0.25-1.982-0.764c-0.387-0.267-0.816-0.594-1.205-1.051
			c-0.206-0.218-0.383-0.481-0.572-0.755c-0.082-0.145-0.167-0.293-0.254-0.445c-0.086-0.152-0.15-0.321-0.226-0.488l-0.073-0.171
			l-0.06-0.177l-0.114-0.356c-0.067-0.24-0.114-0.486-0.162-0.73c-0.067-0.494-0.098-0.995-0.05-1.489
			c0.081-0.986,0.396-1.95,0.909-2.781c0.519-0.827,1.229-1.51,2.033-1.995c0.802-0.491,1.713-0.757,2.604-0.82
			c0.894-0.061,1.769,0.09,2.545,0.405c0.778,0.315,1.445,0.808,1.961,1.381c0.517,0.575,0.884,1.234,1.096,1.902
			c0.214,0.668,0.273,1.344,0.211,1.966c-0.127,1.251-0.701,2.266-1.394,2.895c-0.343,0.319-0.698,0.567-1.055,0.73
			c-0.043,0.022-0.086,0.043-0.128,0.065c-0.044,0.019-0.089,0.034-0.132,0.051c-0.086,0.033-0.17,0.065-0.252,0.097
			c-0.172,0.043-0.327,0.098-0.482,0.121c-0.615,0.111-1.088,0.069-1.398,0.005c-0.155-0.021-0.272-0.07-0.349-0.085
			c-0.077-0.021-0.117-0.031-0.117-0.031s0.093,0.016,0.269,0.048c0.089,0.023,0.198,0.027,0.329,0.036
			c0.132,0.018,0.282,0.009,0.454,0.005c0.34-0.024,0.765-0.087,1.229-0.277c0.462-0.188,0.962-0.502,1.405-0.975
			c0.231-0.23,0.419-0.515,0.605-0.822c0.16-0.318,0.321-0.662,0.403-1.047c0.197-0.762,0.177-1.644-0.119-2.502
			c-0.139-0.433-0.374-0.844-0.655-1.233c-0.075-0.093-0.141-0.197-0.226-0.284l-0.251-0.269c-0.183-0.164-0.366-0.336-0.576-0.475
			C69.167,31.929,68.106,31.611,67.021,31.635z"/>
	</g>
	<g style="clip-path:url(#SVGID_00000176007767043542400150000007336085128357325971_);">
		<path style="fill:#7A57D1;" d="M25.21,30.17c-2.263-1.54-2.85-4.622-1.31-6.886c1.54-2.263,4.622-2.85,6.886-1.31
			c2.263,1.54,2.85,4.622,1.31,6.886C30.556,31.123,27.473,31.71,25.21,30.17z"/>
		<path style="fill:#261605;" d="M29.884,21.61c-0.656-0.329-1.362-0.485-2.038-0.503c-0.678-0.018-1.327,0.104-1.907,0.323
			c-0.579,0.22-1.093,0.531-1.518,0.9c-0.421,0.372-0.763,0.786-1.031,1.213c-0.521,0.864-0.743,1.76-0.775,2.54
			c-0.028,0.784,0.108,1.458,0.293,2.005c0.399,1.093,0.922,1.695,1.25,2.07c0.084,0.095,0.156,0.177,0.22,0.249
			c0.067,0.067,0.123,0.126,0.168,0.178c0.09,0.104,0.14,0.181,0.16,0.244c0.029,0.094-0.019,0.149-0.18,0.121
			c-0.157-0.032-0.446-0.125-0.83-0.415c-0.382-0.285-0.891-0.754-1.331-1.554c-0.206-0.403-0.42-0.876-0.541-1.442
			c-0.075-0.279-0.104-0.583-0.139-0.901c-0.004-0.16-0.008-0.325-0.012-0.493c-0.004-0.168,0.02-0.341,0.032-0.517l0.016-0.179
			l0.031-0.178l0.066-0.354c0.053-0.234,0.126-0.465,0.197-0.693c0.169-0.45,0.372-0.888,0.638-1.285
			c0.52-0.799,1.228-1.472,2.042-1.942c0.818-0.464,1.732-0.718,2.636-0.761c0.904-0.05,1.799,0.141,2.583,0.496
			c0.786,0.357,1.458,0.885,1.972,1.507c0.516,0.623,0.855,1.346,1.031,2.068c0.176,0.724,0.185,1.45,0.059,2.114
			c-0.124,0.664-0.383,1.264-0.72,1.763c-0.681,1.003-1.631,1.6-2.506,1.817c-0.436,0.114-0.851,0.161-1.228,0.136
			c-0.047-0.001-0.093-0.002-0.138-0.004c-0.046-0.004-0.091-0.012-0.135-0.017c-0.088-0.011-0.174-0.023-0.258-0.033
			c-0.166-0.042-0.322-0.067-0.464-0.118c-0.572-0.188-0.954-0.44-1.188-0.635c-0.122-0.089-0.198-0.184-0.257-0.232
			c-0.056-0.053-0.085-0.08-0.085-0.08s0.072,0.057,0.206,0.163c0.065,0.06,0.156,0.113,0.262,0.181
			c0.104,0.076,0.235,0.136,0.383,0.212c0.299,0.135,0.688,0.276,1.168,0.327c0.478,0.052,1.045,0.014,1.637-0.184
			c0.301-0.089,0.591-0.245,0.889-0.42c0.281-0.196,0.576-0.415,0.82-0.704c0.516-0.555,0.902-1.313,1.044-2.175
			c0.08-0.431,0.069-0.887,0.008-1.345c-0.021-0.113-0.029-0.232-0.062-0.344l-0.089-0.343c-0.08-0.222-0.156-0.452-0.271-0.667
			C31.569,22.841,30.815,22.086,29.884,21.61z"/>
	</g>
	<g style="clip-path:url(#SVGID_00000176007767043542400150000007336085128357325971_);">
		<path style="fill:#7A57D1;" d="M51.461,96.567c-2.38-0.452-3.942-2.749-3.49-5.129s2.749-3.942,5.129-3.49
			c2.38,0.452,3.942,2.749,3.49,5.129C56.137,95.457,53.841,97.02,51.461,96.567z"/>
		<path style="fill:#261605;" d="M52.239,87.97c-0.649-0.036-1.277,0.086-1.832,0.309c-0.557,0.224-1.041,0.552-1.434,0.934
			c-0.393,0.383-0.7,0.816-0.915,1.265c-0.211,0.451-0.342,0.907-0.41,1.348c-0.119,0.885,0.017,1.69,0.266,2.335
			c0.253,0.647,0.601,1.145,0.944,1.524c0.709,0.747,1.346,1.051,1.744,1.24c0.101,0.048,0.189,0.089,0.266,0.125
			c0.078,0.031,0.144,0.059,0.199,0.085c0.11,0.053,0.177,0.098,0.216,0.142c0.057,0.066,0.037,0.127-0.103,0.162
			c-0.139,0.03-0.406,0.055-0.82-0.044c-0.41-0.097-0.989-0.299-1.628-0.793c-0.309-0.255-0.65-0.564-0.947-0.98
			c-0.159-0.2-0.29-0.437-0.431-0.683c-0.059-0.129-0.121-0.261-0.183-0.396c-0.062-0.135-0.104-0.284-0.156-0.431l-0.05-0.151
			l-0.038-0.155l-0.071-0.311c-0.04-0.209-0.062-0.421-0.084-0.632c-0.021-0.425-0.011-0.852,0.065-1.268
			c0.14-0.832,0.478-1.628,0.974-2.296c0.501-0.665,1.153-1.193,1.872-1.547c0.717-0.359,1.51-0.519,2.271-0.507
			c0.764,0.013,1.496,0.204,2.132,0.529c0.638,0.324,1.169,0.792,1.565,1.316c0.398,0.526,0.661,1.112,0.793,1.695
			c0.133,0.583,0.135,1.161,0.036,1.685c-0.199,1.054-0.76,1.874-1.394,2.358c-0.314,0.246-0.634,0.431-0.949,0.543
			c-0.038,0.015-0.076,0.031-0.114,0.046c-0.038,0.013-0.078,0.022-0.116,0.034c-0.075,0.022-0.149,0.043-0.221,0.064
			c-0.149,0.024-0.285,0.059-0.418,0.068c-0.531,0.049-0.929-0.021-1.188-0.097c-0.13-0.029-0.226-0.079-0.291-0.098
			c-0.064-0.023-0.097-0.035-0.097-0.035s0.078,0.021,0.225,0.06c0.074,0.026,0.167,0.037,0.277,0.055
			c0.111,0.025,0.239,0.028,0.385,0.037c0.291,0.005,0.656-0.018,1.064-0.146c0.406-0.126,0.854-0.357,1.264-0.726
			c0.213-0.178,0.393-0.407,0.573-0.654c0.159-0.258,0.321-0.539,0.418-0.86c0.223-0.633,0.269-1.383,0.081-2.134
			c-0.087-0.378-0.257-0.744-0.467-1.095c-0.057-0.084-0.106-0.178-0.171-0.258l-0.193-0.247c-0.144-0.152-0.286-0.312-0.455-0.445
			C54.041,88.376,53.163,88.029,52.239,87.97z"/>
	</g>
	<g style="clip-path:url(#SVGID_00000176007767043542400150000007336085128357325971_);">
		<path style="fill:#F5F7FA;" d="M28.585,75.862c-3.168-1.644-4.403-5.545-2.759-8.712c1.644-3.168,5.545-4.403,8.712-2.758
			c3.168,1.644,4.403,5.545,2.758,8.712C35.653,76.271,31.753,77.507,28.585,75.862z"/>
		<path style="fill:#261605;" d="M33.316,64.059c-0.901-0.325-1.839-0.418-2.717-0.337c-0.88,0.081-1.703,0.339-2.419,0.712
			c-0.716,0.375-1.333,0.857-1.826,1.399c-0.487,0.547-0.866,1.136-1.148,1.729c-0.541,1.2-0.69,2.393-0.611,3.408
			c0.084,1.02,0.364,1.87,0.688,2.55c0.685,1.353,1.455,2.052,1.938,2.486c0.123,0.11,0.23,0.205,0.323,0.289
			c0.097,0.076,0.178,0.144,0.245,0.204c0.133,0.121,0.209,0.213,0.244,0.292c0.052,0.117-0.002,0.195-0.214,0.185
			c-0.209-0.017-0.596-0.093-1.139-0.409c-0.538-0.31-1.269-0.839-1.963-1.807c-0.329-0.491-0.679-1.07-0.922-1.783
			c-0.14-0.35-0.225-0.739-0.32-1.146c-0.03-0.207-0.06-0.419-0.091-0.637c-0.031-0.217-0.027-0.444-0.039-0.674l-0.007-0.234
			l0.012-0.235l0.031-0.469c0.032-0.311,0.091-0.621,0.148-0.928c0.149-0.609,0.345-1.207,0.628-1.762
			c0.549-1.114,1.363-2.095,2.344-2.829c0.987-0.727,2.132-1.197,3.295-1.392c1.163-0.204,2.35-0.095,3.42,0.244
			c1.073,0.341,2.024,0.92,2.786,1.647c0.764,0.727,1.315,1.611,1.653,2.518c0.339,0.91,0.463,1.849,0.403,2.727
			c-0.058,0.88-0.301,1.696-0.66,2.394c-0.726,1.403-1.865,2.323-2.964,2.739c-0.547,0.215-1.077,0.34-1.569,0.366
			c-0.06,0.006-0.12,0.011-0.18,0.017c-0.06,0.002-0.12-0.001-0.178-0.001c-0.115-0.001-0.228-0.002-0.339-0.003
			c-0.221-0.03-0.427-0.037-0.619-0.081c-0.77-0.155-1.303-0.422-1.636-0.639c-0.171-0.096-0.285-0.207-0.369-0.261
			c-0.081-0.06-0.123-0.09-0.123-0.09s0.101,0.062,0.292,0.18c0.093,0.068,0.219,0.123,0.368,0.194
			c0.146,0.082,0.325,0.14,0.528,0.215c0.408,0.129,0.933,0.251,1.563,0.244c0.627-0.006,1.356-0.143,2.091-0.491
			c0.376-0.162,0.727-0.408,1.086-0.681c0.333-0.298,0.681-0.626,0.954-1.038c0.582-0.799,0.965-1.839,1.016-2.977
			c0.037-0.571-0.048-1.159-0.197-1.742c-0.045-0.143-0.074-0.295-0.133-0.436l-0.168-0.43c-0.138-0.275-0.272-0.562-0.454-0.821
			C35.687,65.393,34.595,64.532,33.316,64.059z"/>
	</g>
	<g style="clip-path:url(#SVGID_00000176007767043542400150000007336085128357325971_);">
		<path style="fill:#4FC1E9;" d="M5.284,11.881c2.27-2.244,5.929-2.222,8.172,0.047s2.222,5.929-0.048,8.172
			c-2.27,2.244-5.929,2.222-8.172-0.047S3.014,14.125,5.284,11.881z"/>
		<path style="fill:#261605;" d="M14.028,19.152c0.524-0.677,0.861-1.45,1.034-2.219c0.173-0.771,0.179-1.542,0.058-2.254
			c-0.122-0.712-0.363-1.37-0.688-1.939c-0.332-0.565-0.728-1.049-1.156-1.452c-0.872-0.79-1.846-1.245-2.732-1.457
			c-0.891-0.209-1.692-0.204-2.36-0.115c-1.34,0.211-2.146,0.674-2.649,0.966c-0.127,0.075-0.238,0.139-0.334,0.196
			C5.11,10.938,5.03,10.989,4.96,11.029c-0.139,0.08-0.239,0.12-0.315,0.128c-0.114,0.012-0.166-0.055-0.098-0.233
			c0.072-0.173,0.243-0.482,0.661-0.857c0.412-0.373,1.063-0.85,2.077-1.174c0.508-0.145,1.097-0.284,1.771-0.295
			c0.336-0.023,0.691,0.011,1.063,0.043c0.184,0.032,0.373,0.064,0.567,0.097c0.193,0.034,0.386,0.099,0.584,0.152l0.201,0.059
			l0.196,0.075l0.39,0.155c0.256,0.113,0.503,0.248,0.749,0.381c0.477,0.294,0.933,0.625,1.327,1.019
			c0.797,0.774,1.408,1.736,1.763,2.773c0.347,1.04,0.432,2.143,0.279,3.187c-0.146,1.046-0.566,2.026-1.148,2.843
			c-0.585,0.819-1.34,1.47-2.167,1.918c-0.828,0.451-1.732,0.676-2.597,0.715c-0.867,0.038-1.701-0.114-2.432-0.407
			c-0.732-0.292-1.36-0.722-1.855-1.22c-0.994-1.004-1.464-2.226-1.516-3.275c-0.032-0.525,0.007-1.01,0.12-1.436
			c0.012-0.053,0.024-0.106,0.035-0.158c0.015-0.051,0.034-0.101,0.05-0.151c0.033-0.098,0.065-0.194,0.096-0.287
			C4.847,14.902,4.91,14.728,5,14.577c0.343-0.612,0.717-0.993,0.994-1.216c0.129-0.12,0.255-0.186,0.324-0.242
			c0.073-0.052,0.111-0.08,0.111-0.08s-0.081,0.069-0.233,0.199c-0.083,0.061-0.165,0.153-0.266,0.259
			c-0.11,0.101-0.209,0.238-0.328,0.39c-0.222,0.312-0.47,0.725-0.637,1.263c-0.167,0.535-0.251,1.193-0.157,1.914
			c0.034,0.364,0.148,0.731,0.281,1.111c0.162,0.365,0.345,0.751,0.621,1.097c0.52,0.714,1.299,1.326,2.254,1.683
			c0.475,0.189,0.999,0.278,1.537,0.311c0.134,0.001,0.272,0.018,0.408,0.007l0.412-0.025c0.273-0.042,0.553-0.077,0.823-0.161
			C12.241,20.803,13.274,20.11,14.028,19.152z"/>
	</g>
	<g style="clip-path:url(#SVGID_00000176007767043542400150000007336085128357325971_);">
		<path style="fill:#F5F7FA;" d="M1.305,80.204c0.873-3.427,4.36-5.497,7.786-4.623c3.427,0.873,5.497,4.36,4.623,7.786
			s-4.36,5.497-7.786,4.623C2.502,87.117,0.432,83.631,1.305,80.204z"/>
		<path style="fill:#261605;" d="M13.761,82.112c0.111-0.942-0.011-1.868-0.286-2.698c-0.276-0.831-0.711-1.566-1.232-2.174
			c-0.523-0.607-1.127-1.094-1.761-1.447c-0.638-0.347-1.291-0.58-1.927-0.718c-1.279-0.253-2.464-0.127-3.426,0.177
			c-0.965,0.311-1.723,0.772-2.306,1.238c-1.152,0.965-1.653,1.866-1.963,2.43c-0.078,0.144-0.146,0.268-0.206,0.377
			c-0.052,0.111-0.099,0.204-0.142,0.282c-0.087,0.156-0.159,0.25-0.227,0.301c-0.101,0.076-0.189,0.042-0.226-0.165
			c-0.031-0.205-0.044-0.596,0.138-1.191c0.178-0.589,0.524-1.414,1.302-2.301c0.4-0.428,0.88-0.896,1.513-1.292
			c0.306-0.214,0.663-0.384,1.034-0.566c0.193-0.075,0.391-0.152,0.594-0.231c0.203-0.078,0.423-0.126,0.642-0.189l0.225-0.059
			l0.229-0.041l0.459-0.076c0.307-0.039,0.62-0.052,0.929-0.066c0.621,0.007,1.243,0.061,1.842,0.209
			c1.199,0.279,2.328,0.844,3.257,1.626c0.924,0.789,1.635,1.788,2.085,2.866c0.459,1.076,0.62,2.247,0.534,3.355
			c-0.087,1.112-0.433,2.161-0.962,3.059c-0.529,0.901-1.259,1.632-2.058,2.163c-0.802,0.532-1.68,0.863-2.541,1.003
			c-0.862,0.141-1.704,0.092-2.459-0.099c-1.517-0.385-2.662-1.277-3.31-2.243c-0.33-0.48-0.571-0.963-0.706-1.432
			c-0.019-0.057-0.038-0.114-0.056-0.17c-0.015-0.057-0.026-0.116-0.039-0.172c-0.025-0.112-0.049-0.221-0.073-0.328
			c-0.021-0.22-0.061-0.42-0.062-0.616c-0.024-0.777,0.114-1.352,0.249-1.722c0.054-0.187,0.135-0.322,0.169-0.415
			c0.039-0.091,0.06-0.139,0.06-0.139s-0.037,0.112-0.108,0.322c-0.044,0.105-0.069,0.239-0.105,0.399
			c-0.047,0.159-0.062,0.345-0.088,0.558c-0.033,0.423-0.032,0.957,0.117,1.563c0.147,0.604,0.443,1.276,0.944,1.907
			c0.241,0.326,0.558,0.61,0.901,0.894c0.362,0.254,0.757,0.516,1.216,0.687c0.902,0.382,1.991,0.517,3.102,0.31
			c0.559-0.092,1.107-0.307,1.637-0.582c0.128-0.076,0.268-0.138,0.391-0.226l0.377-0.259c0.235-0.196,0.48-0.389,0.69-0.623
			C13.007,84.701,13.593,83.453,13.761,82.112z"/>
	</g>
	<g style="clip-path:url(#SVGID_00000176007767043542400150000007336085128357325971_);">
		<path style="fill:#F5F7FA;" d="M21.081,86.566c-1.482,1.115-3.587,0.817-4.701-0.664c-1.115-1.482-0.817-3.587,0.664-4.702
			c1.482-1.115,3.587-0.817,4.701,0.664C22.861,83.346,22.563,85.451,21.081,86.566z"/>
		<path style="fill:#261605;" d="M16.614,81.698c-0.354,0.349-0.609,0.768-0.768,1.197c-0.16,0.431-0.223,0.874-0.209,1.293
			c0.015,0.42,0.102,0.817,0.245,1.17c0.147,0.351,0.338,0.661,0.552,0.926c0.44,0.523,0.966,0.861,1.459,1.052
			c0.497,0.19,0.958,0.249,1.35,0.25c0.788-0.017,1.288-0.221,1.6-0.35c0.079-0.033,0.148-0.062,0.208-0.087
			c0.058-0.028,0.108-0.051,0.151-0.069c0.087-0.035,0.147-0.05,0.192-0.049c0.066,0.002,0.091,0.045,0.038,0.142
			c-0.055,0.094-0.178,0.258-0.448,0.442c-0.266,0.183-0.678,0.406-1.288,0.514c-0.304,0.044-0.654,0.078-1.043,0.032
			c-0.195-0.013-0.397-0.061-0.608-0.108c-0.104-0.033-0.21-0.066-0.319-0.1c-0.109-0.034-0.214-0.087-0.325-0.133l-0.111-0.049
			l-0.107-0.059l-0.213-0.12c-0.139-0.085-0.27-0.182-0.401-0.278c-0.252-0.207-0.488-0.433-0.685-0.69
			c-0.399-0.508-0.675-1.109-0.799-1.734c-0.119-0.626-0.082-1.268,0.088-1.856c0.166-0.591,0.484-1.122,0.882-1.548
			c0.401-0.426,0.886-0.742,1.397-0.935c0.512-0.195,1.05-0.254,1.551-0.209c0.502,0.046,0.97,0.199,1.368,0.424
			c0.399,0.225,0.727,0.522,0.973,0.847c0.494,0.655,0.67,1.396,0.618,2.004c-0.022,0.305-0.083,0.581-0.181,0.817
			c-0.011,0.03-0.022,0.059-0.032,0.088c-0.013,0.028-0.027,0.056-0.041,0.083c-0.026,0.054-0.052,0.106-0.078,0.158
			c-0.063,0.097-0.113,0.192-0.177,0.272c-0.245,0.326-0.49,0.516-0.667,0.623c-0.083,0.059-0.161,0.087-0.205,0.114
			c-0.046,0.024-0.07,0.037-0.07,0.037s0.052-0.034,0.15-0.096c0.052-0.029,0.107-0.075,0.174-0.129
			c0.071-0.05,0.139-0.121,0.219-0.199c0.152-0.162,0.327-0.381,0.465-0.678c0.138-0.295,0.238-0.667,0.24-1.09
			c0.009-0.212-0.028-0.432-0.075-0.661c-0.065-0.223-0.14-0.46-0.272-0.68c-0.244-0.452-0.645-0.865-1.167-1.145
			c-0.259-0.146-0.554-0.238-0.861-0.299c-0.077-0.011-0.155-0.032-0.234-0.036l-0.239-0.018c-0.16,0.003-0.324,0.001-0.487,0.028
			C17.771,80.887,17.122,81.205,16.614,81.698z"/>
	</g>
	<g style="clip-path:url(#SVGID_00000176007767043542400150000007336085128357325971_);">
		<path style="fill:#5BE7C4;" d="M62.14,76.844c-0.911-1.429-0.492-3.326,0.937-4.237c1.429-0.911,3.326-0.492,4.237,0.937
			c0.911,1.429,0.492,3.326-0.937,4.237C64.948,78.692,63.051,78.273,62.14,76.844z"/>
		<path style="fill:#261605;" d="M66.89,73.116c-0.293-0.348-0.657-0.609-1.037-0.784c-0.381-0.176-0.781-0.265-1.164-0.282
			c-0.383-0.016-0.752,0.035-1.083,0.141c-0.331,0.109-0.626,0.261-0.883,0.438c-0.508,0.364-0.852,0.82-1.061,1.256
			c-0.208,0.439-0.295,0.855-0.323,1.212c-0.04,0.719,0.11,1.19,0.206,1.483c0.025,0.074,0.046,0.139,0.064,0.195
			c0.022,0.054,0.039,0.102,0.052,0.142c0.026,0.081,0.035,0.137,0.031,0.178c-0.006,0.06-0.047,0.08-0.132,0.025
			c-0.082-0.057-0.223-0.18-0.371-0.439c-0.148-0.255-0.322-0.647-0.377-1.209c-0.019-0.28-0.025-0.601,0.045-0.952
			c0.026-0.177,0.083-0.357,0.141-0.547c0.037-0.092,0.075-0.187,0.114-0.284c0.039-0.097,0.094-0.189,0.144-0.286l0.053-0.098
			l0.061-0.093l0.124-0.185c0.087-0.12,0.185-0.234,0.281-0.346c0.206-0.215,0.429-0.414,0.677-0.575
			c0.491-0.328,1.058-0.537,1.636-0.606c0.579-0.064,1.161,0.015,1.685,0.211c0.527,0.192,0.989,0.52,1.348,0.913
			c0.36,0.395,0.614,0.86,0.754,1.339c0.141,0.48,0.158,0.975,0.081,1.428c-0.077,0.455-0.249,0.87-0.483,1.217
			c-0.233,0.348-0.527,0.626-0.841,0.827c-0.632,0.404-1.319,0.512-1.869,0.421c-0.276-0.042-0.524-0.116-0.732-0.222
			c-0.026-0.012-0.052-0.024-0.078-0.036c-0.025-0.013-0.049-0.029-0.073-0.043c-0.047-0.028-0.093-0.055-0.139-0.082
			c-0.084-0.065-0.167-0.117-0.235-0.18c-0.279-0.246-0.435-0.483-0.521-0.652c-0.048-0.08-0.068-0.153-0.09-0.195
			c-0.019-0.044-0.029-0.066-0.029-0.066s0.027,0.05,0.077,0.143c0.022,0.05,0.061,0.103,0.105,0.167
			c0.04,0.068,0.1,0.135,0.166,0.214c0.137,0.15,0.324,0.325,0.585,0.472c0.259,0.146,0.591,0.264,0.976,0.295
			c0.193,0.023,0.396,0.005,0.608-0.022c0.208-0.043,0.429-0.095,0.639-0.2c0.429-0.19,0.834-0.527,1.125-0.982
			c0.151-0.226,0.256-0.488,0.333-0.763c0.015-0.07,0.04-0.139,0.049-0.211l0.033-0.217c0.009-0.146,0.021-0.296,0.008-0.445
			C67.548,74.228,67.304,73.614,66.89,73.116z"/>
	</g>
	<g style="clip-path:url(#SVGID_00000176007767043542400150000007336085128357325971_);">
		<path style="fill:#7A57D1;" d="M24.949,92.615c1.955-1.994,5.157-2.025,7.151-0.07c1.994,1.955,2.025,5.157,0.07,7.151
			c-1.955,1.994-5.157,2.025-7.151,0.07C23.024,97.81,22.993,94.609,24.949,92.615z"/>
		<path style="fill:#261605;" d="M32.698,98.857c0.449-0.599,0.734-1.28,0.875-1.956c0.141-0.677,0.136-1.352,0.02-1.973
			c-0.116-0.621-0.336-1.194-0.629-1.687c-0.298-0.49-0.652-0.908-1.031-1.255c-0.774-0.68-1.632-1.064-2.41-1.238
			c-0.782-0.171-1.483-0.156-2.066-0.069c-1.17,0.202-1.869,0.619-2.304,0.881c-0.11,0.067-0.206,0.125-0.29,0.176
			c-0.079,0.055-0.148,0.1-0.209,0.136c-0.121,0.072-0.207,0.108-0.274,0.116c-0.099,0.012-0.146-0.046-0.089-0.203
			c0.06-0.152,0.206-0.425,0.567-0.759c0.355-0.332,0.919-0.758,1.802-1.055c0.442-0.134,0.956-0.263,1.546-0.282
			c0.294-0.024,0.605,0.001,0.93,0.023c0.162,0.025,0.327,0.051,0.497,0.078c0.17,0.027,0.339,0.081,0.513,0.125l0.177,0.049
			l0.173,0.063l0.344,0.13c0.225,0.095,0.444,0.21,0.66,0.323c0.421,0.251,0.824,0.535,1.175,0.873
			c0.708,0.666,1.256,1.499,1.58,2.402c0.318,0.905,0.407,1.869,0.287,2.784c-0.113,0.917-0.467,1.78-0.965,2.503
			c-0.501,0.725-1.152,1.304-1.87,1.707c-0.719,0.405-1.506,0.615-2.263,0.661c-0.758,0.045-1.49-0.077-2.133-0.323
			c-0.645-0.245-1.2-0.613-1.64-1.042c-0.884-0.865-1.311-1.927-1.371-2.844c-0.035-0.459-0.008-0.884,0.085-1.258
			c0.01-0.047,0.019-0.093,0.029-0.138c0.012-0.045,0.028-0.089,0.042-0.133c0.027-0.086,0.054-0.17,0.08-0.253
			c0.073-0.159,0.125-0.311,0.202-0.445c0.292-0.54,0.614-0.878,0.853-1.078c0.111-0.106,0.22-0.166,0.28-0.216
			c0.063-0.047,0.096-0.071,0.096-0.071s-0.07,0.062-0.201,0.177c-0.072,0.054-0.142,0.136-0.23,0.231
			c-0.095,0.09-0.18,0.211-0.282,0.346c-0.19,0.276-0.401,0.641-0.54,1.114c-0.139,0.47-0.204,1.047-0.112,1.677
			c0.035,0.318,0.139,0.637,0.261,0.968c0.146,0.317,0.312,0.653,0.558,0.951c0.464,0.618,1.155,1.143,1.995,1.441
			c0.418,0.159,0.878,0.229,1.349,0.251c0.118-0.001,0.238,0.012,0.357,0.001l0.36-0.028c0.238-0.04,0.483-0.075,0.718-0.152
			C31.157,100.326,32.051,99.706,32.698,98.857z"/>
	</g>
	<g style="clip-path:url(#SVGID_00000176007767043542400150000007336085128357325971_);">
		<path style="fill:#F5F7FA;" d="M14.22,55.229c1.061,3.265-0.726,6.771-3.991,7.831c-3.265,1.061-6.771-0.726-7.831-3.991
			s0.726-6.771,3.991-7.831C9.654,50.178,13.16,51.965,14.22,55.229z"/>
		<path style="fill:#261605;" d="M3.012,60.124c0.398,0.831,0.978,1.527,1.634,2.065c0.658,0.539,1.396,0.917,2.138,1.144
			c0.743,0.227,1.491,0.313,2.195,0.274c0.704-0.046,1.36-0.194,1.954-0.41c1.181-0.456,2.088-1.174,2.719-1.922
			c0.631-0.756,1.013-1.527,1.25-2.212c0.444-1.389,0.388-2.388,0.351-3.012c-0.01-0.158-0.019-0.296-0.027-0.416
			c-0.015-0.118-0.025-0.219-0.03-0.305c-0.01-0.173,0.001-0.287,0.03-0.365c0.043-0.115,0.133-0.132,0.271,0.018
			c0.132,0.153,0.346,0.466,0.504,1.049c0.16,0.575,0.303,1.432,0.125,2.563c-0.106,0.558-0.257,1.191-0.572,1.844
			c-0.14,0.334-0.345,0.659-0.554,1.001c-0.119,0.162-0.242,0.328-0.368,0.498c-0.126,0.17-0.281,0.323-0.429,0.488l-0.154,0.165
			l-0.167,0.152l-0.337,0.3c-0.232,0.191-0.481,0.364-0.728,0.536c-0.513,0.316-1.051,0.594-1.62,0.783
			c-1.128,0.393-2.348,0.516-3.516,0.356c-1.167-0.168-2.269-0.619-3.197-1.27c-0.935-0.645-1.674-1.522-2.179-2.476
			c-0.505-0.958-0.766-1.997-0.797-3.009c-0.033-1.014,0.187-1.991,0.567-2.841c0.382-0.852,0.931-1.579,1.565-2.141
			c0.634-0.563,1.351-0.959,2.068-1.194c1.445-0.471,2.846-0.333,3.879,0.124c0.52,0.222,0.968,0.494,1.322,0.808
			c0.045,0.037,0.09,0.074,0.134,0.11c0.042,0.039,0.081,0.082,0.121,0.121c0.078,0.079,0.155,0.156,0.23,0.231
			c0.131,0.169,0.268,0.313,0.37,0.473c0.423,0.625,0.608,1.168,0.689,1.542c0.053,0.181,0.056,0.334,0.076,0.428
			c0.015,0.095,0.023,0.145,0.023,0.145s-0.027-0.111-0.079-0.32c-0.018-0.109-0.067-0.232-0.121-0.381
			c-0.044-0.155-0.128-0.316-0.217-0.504c-0.193-0.364-0.47-0.802-0.906-1.222c-0.433-0.419-1.025-0.817-1.764-1.075
			c-0.367-0.143-0.773-0.211-1.203-0.266c-0.429-0.021-0.889-0.031-1.354,0.067c-0.938,0.155-1.902,0.609-2.705,1.354
			c-0.411,0.366-0.749,0.826-1.041,1.326c-0.066,0.129-0.149,0.252-0.203,0.388l-0.175,0.408c-0.091,0.282-0.192,0.568-0.243,0.869
			C2.288,57.609,2.454,58.936,3.012,60.124z"/>
	</g>
	<g style="clip-path:url(#SVGID_00000176007767043542400150000007336085128357325971_);">
		<path style="fill:#F5F7FA;" d="M12.859,67.316c2.411-1.257,5.385-0.32,6.642,2.091c1.256,2.411,0.32,5.385-2.092,6.641
			c-2.412,1.256-5.385,0.32-6.641-2.091C9.511,71.546,10.448,68.572,12.859,67.316z"/>
		<path style="fill:#261605;" d="M18.152,75.431c0.597-0.42,1.065-0.964,1.399-1.547c0.335-0.585,0.533-1.211,0.614-1.82
			c0.08-0.611,0.049-1.206-0.073-1.751c-0.128-0.544-0.33-1.037-0.576-1.473c-0.511-0.862-1.191-1.477-1.858-1.872
			c-0.673-0.394-1.326-0.591-1.892-0.687c-1.144-0.165-1.917,0.009-2.399,0.121c-0.123,0.029-0.229,0.054-0.321,0.075
			c-0.09,0.027-0.168,0.048-0.235,0.063c-0.134,0.03-0.225,0.037-0.289,0.025c-0.096-0.019-0.121-0.087-0.021-0.214
			c0.102-0.123,0.319-0.331,0.754-0.531c0.429-0.2,1.079-0.425,1.986-0.434c0.45,0.01,0.964,0.045,1.516,0.205
			c0.279,0.066,0.56,0.183,0.854,0.302c0.142,0.072,0.288,0.146,0.437,0.222c0.149,0.076,0.289,0.177,0.438,0.271l0.149,0.098
			l0.141,0.11l0.279,0.224c0.18,0.156,0.347,0.328,0.514,0.498c0.314,0.36,0.602,0.743,0.824,1.163
			c0.455,0.83,0.711,1.767,0.739,2.7c0.021,0.934-0.187,1.854-0.573,2.664c-0.381,0.815-0.969,1.507-1.649,2.027
			c-0.682,0.52-1.46,0.86-2.246,1.017c-0.788,0.159-1.58,0.115-2.294-0.071c-0.716-0.187-1.356-0.521-1.877-0.942
			c-0.523-0.421-0.926-0.93-1.204-1.459c-0.557-1.067-0.633-2.18-0.411-3.047c0.106-0.435,0.259-0.821,0.458-1.139
			c0.023-0.04,0.046-0.08,0.068-0.119c0.025-0.038,0.053-0.074,0.079-0.11c0.051-0.071,0.101-0.141,0.15-0.21
			c0.115-0.125,0.21-0.25,0.321-0.351c0.433-0.412,0.833-0.628,1.115-0.741c0.135-0.065,0.254-0.087,0.324-0.116
			c0.073-0.024,0.11-0.037,0.11-0.037s-0.083,0.036-0.24,0.104c-0.083,0.029-0.173,0.083-0.282,0.144
			c-0.115,0.055-0.23,0.141-0.365,0.235c-0.259,0.198-0.565,0.472-0.836,0.868c-0.271,0.394-0.504,0.908-0.609,1.519
			c-0.064,0.305-0.064,0.632-0.05,0.975c0.04,0.338,0.092,0.699,0.23,1.049c0.244,0.712,0.725,1.406,1.413,1.936
			c0.34,0.273,0.744,0.477,1.173,0.64c0.109,0.035,0.217,0.083,0.33,0.108l0.342,0.083c0.232,0.034,0.469,0.076,0.711,0.076
			C16.282,76.327,17.297,76.023,18.152,75.431z"/>
	</g>
	<g style="clip-path:url(#SVGID_00000176007767043542400150000007336085128357325971_);">
		<path style="fill:#7A57D1;" d="M50.924,75.074c1.315,1.542,1.132,3.858-0.41,5.173c-1.542,1.315-3.858,1.132-5.173-0.41
			c-1.315-1.542-1.132-3.858,0.41-5.173C47.293,73.349,49.609,73.533,50.924,75.074z"/>
		<path style="fill:#261605;" d="M45.913,80.273c0.404,0.363,0.878,0.613,1.357,0.758c0.48,0.145,0.968,0.185,1.425,0.142
			c0.457-0.044,0.884-0.166,1.26-0.346c0.374-0.184,0.698-0.412,0.973-0.664c0.541-0.515,0.874-1.111,1.05-1.662
			c0.174-0.555,0.208-1.062,0.183-1.489c-0.071-0.858-0.327-1.391-0.488-1.722c-0.041-0.084-0.077-0.157-0.108-0.221
			c-0.035-0.061-0.063-0.114-0.085-0.16c-0.044-0.092-0.065-0.157-0.066-0.206c-0.002-0.073,0.043-0.102,0.152-0.051
			c0.106,0.053,0.294,0.176,0.512,0.459c0.217,0.278,0.489,0.713,0.647,1.37c0.068,0.328,0.128,0.708,0.104,1.135
			c-0.001,0.214-0.039,0.437-0.077,0.671c-0.029,0.115-0.058,0.233-0.088,0.354c-0.03,0.121-0.081,0.24-0.124,0.363l-0.047,0.125
			l-0.057,0.121l-0.116,0.24c-0.083,0.157-0.18,0.307-0.276,0.457c-0.209,0.288-0.439,0.561-0.707,0.793
			c-0.527,0.469-1.165,0.811-1.838,0.987c-0.675,0.172-1.377,0.174-2.031,0.028c-0.656-0.141-1.257-0.452-1.747-0.859
			c-0.492-0.409-0.868-0.917-1.114-1.462c-0.247-0.545-0.347-1.129-0.332-1.678c0.016-0.551,0.152-1.072,0.371-1.521
			c0.219-0.45,0.521-0.828,0.859-1.118c0.682-0.583,1.478-0.824,2.144-0.808c0.334,0.004,0.639,0.051,0.904,0.143
			c0.033,0.01,0.066,0.02,0.098,0.03c0.032,0.012,0.063,0.026,0.093,0.039c0.06,0.025,0.12,0.05,0.178,0.074
			c0.11,0.063,0.217,0.11,0.308,0.175c0.372,0.246,0.595,0.5,0.724,0.686c0.07,0.087,0.106,0.17,0.138,0.216
			c0.03,0.049,0.045,0.074,0.045,0.074s-0.04-0.055-0.115-0.157c-0.035-0.055-0.089-0.111-0.152-0.181
			c-0.059-0.074-0.141-0.143-0.232-0.226c-0.187-0.155-0.437-0.332-0.77-0.462c-0.331-0.131-0.744-0.215-1.205-0.189
			c-0.232,0.005-0.47,0.059-0.717,0.126c-0.239,0.086-0.492,0.184-0.723,0.342c-0.477,0.296-0.9,0.761-1.17,1.349
			c-0.142,0.292-0.222,0.62-0.269,0.959c-0.007,0.085-0.024,0.171-0.023,0.258l-0.003,0.262c0.014,0.174,0.023,0.354,0.063,0.529
			C44.951,79.065,45.341,79.752,45.913,80.273z"/>
	</g>
	<g style="clip-path:url(#SVGID_00000176007767043542400150000007336085128357325971_);">
		<path style="fill:#5BE7C4;" d="M34.925,81.733c1.663-1.391,4.14-1.171,5.531,0.493c1.391,1.663,1.17,4.14-0.493,5.531
			c-1.664,1.391-4.14,1.171-5.531-0.493S33.262,83.124,34.925,81.733z"/>
		<path style="fill:#261605;" d="M40.436,87.149c0.393-0.429,0.665-0.933,0.825-1.444c0.161-0.512,0.208-1.034,0.167-1.523
			c-0.042-0.489-0.168-0.948-0.357-1.352c-0.193-0.402-0.434-0.752-0.701-1.049c-0.546-0.584-1.18-0.947-1.768-1.141
			c-0.592-0.192-1.134-0.234-1.591-0.211c-0.919,0.067-1.491,0.335-1.848,0.504c-0.09,0.043-0.169,0.081-0.237,0.114
			c-0.066,0.037-0.122,0.066-0.172,0.09c-0.099,0.047-0.169,0.067-0.221,0.069c-0.078,0.002-0.109-0.047-0.053-0.163
			c0.058-0.113,0.192-0.312,0.496-0.543c0.3-0.229,0.768-0.515,1.473-0.677c0.352-0.07,0.759-0.13,1.216-0.1
			c0.229,0.003,0.467,0.047,0.717,0.089c0.123,0.032,0.249,0.064,0.378,0.098c0.129,0.034,0.256,0.089,0.387,0.136l0.133,0.051
			l0.129,0.062l0.256,0.127c0.167,0.091,0.327,0.196,0.486,0.3c0.306,0.226,0.596,0.476,0.841,0.765
			c0.496,0.569,0.856,1.255,1.037,1.977c0.176,0.724,0.172,1.476,0.009,2.173c-0.158,0.7-0.497,1.34-0.938,1.86
			c-0.442,0.522-0.99,0.92-1.576,1.176c-0.586,0.258-1.211,0.36-1.799,0.338c-0.59-0.023-1.145-0.173-1.624-0.413
			c-0.479-0.239-0.881-0.566-1.188-0.931c-0.617-0.736-0.866-1.59-0.842-2.303c0.008-0.357,0.062-0.684,0.162-0.965
			c0.011-0.035,0.022-0.07,0.033-0.105c0.013-0.034,0.029-0.067,0.042-0.099c0.028-0.064,0.055-0.128,0.081-0.189
			c0.068-0.117,0.12-0.231,0.19-0.328c0.267-0.395,0.542-0.632,0.741-0.768c0.094-0.074,0.183-0.111,0.233-0.146
			c0.052-0.031,0.079-0.048,0.079-0.048s-0.059,0.042-0.169,0.122c-0.06,0.036-0.12,0.094-0.195,0.161
			c-0.08,0.062-0.155,0.149-0.244,0.246c-0.168,0.199-0.359,0.465-0.502,0.819c-0.143,0.353-0.237,0.793-0.215,1.287
			c0.003,0.248,0.059,0.503,0.128,0.768c0.089,0.256,0.191,0.528,0.359,0.778c0.312,0.513,0.805,0.971,1.432,1.266
			c0.311,0.155,0.661,0.245,1.023,0.298c0.091,0.008,0.183,0.028,0.276,0.028l0.281,0.006c0.187-0.013,0.379-0.021,0.567-0.062
			C39.133,88.166,39.872,87.756,40.436,87.149z"/>
	</g>
	<g style="clip-path:url(#SVGID_00000176007767043542400150000007336085128357325971_);">
		<path style="fill:#F5F7FA;" d="M7.306,93.287c-0.338-2.279,1.235-4.4,3.514-4.738c2.279-0.338,4.4,1.235,4.738,3.514
			s-1.235,4.4-3.514,4.738C9.765,97.139,7.644,95.566,7.306,93.287z"/>
		<path style="fill:#261605;" d="M15.269,91.298c-0.171-0.594-0.477-1.12-0.851-1.549c-0.375-0.43-0.821-0.762-1.287-0.996
			c-0.467-0.233-0.952-0.373-1.422-0.426c-0.471-0.048-0.921-0.024-1.339,0.053c-0.832,0.17-1.512,0.544-2.014,0.969
			c-0.502,0.43-0.841,0.898-1.074,1.325c-0.449,0.87-0.523,1.537-0.568,1.954c-0.011,0.106-0.02,0.198-0.029,0.278
			c-0.003,0.08-0.008,0.148-0.014,0.205c-0.013,0.115-0.032,0.19-0.06,0.238c-0.041,0.071-0.103,0.073-0.178-0.042
			c-0.07-0.116-0.177-0.347-0.217-0.751c-0.041-0.399-0.041-0.981,0.203-1.71c0.132-0.358,0.303-0.76,0.584-1.157
			c0.13-0.205,0.301-0.397,0.478-0.6c0.097-0.094,0.197-0.19,0.299-0.288c0.102-0.098,0.222-0.182,0.338-0.275l0.12-0.092
			l0.127-0.082l0.257-0.161c0.175-0.101,0.359-0.187,0.541-0.273c0.375-0.152,0.762-0.276,1.159-0.338
			c0.791-0.134,1.611-0.079,2.366,0.157c0.754,0.242,1.432,0.663,1.974,1.197c0.547,0.531,0.938,1.194,1.166,1.881
			c0.227,0.69,0.284,1.407,0.192,2.08c-0.091,0.674-0.346,1.297-0.692,1.817c-0.348,0.521-0.792,0.941-1.274,1.242
			c-0.482,0.302-1.001,0.484-1.502,0.56c-1.009,0.151-1.921-0.097-2.553-0.515c-0.319-0.205-0.585-0.435-0.785-0.682
			c-0.026-0.03-0.051-0.059-0.077-0.088c-0.024-0.031-0.045-0.063-0.067-0.093c-0.043-0.061-0.085-0.12-0.126-0.179
			c-0.068-0.127-0.142-0.237-0.192-0.354c-0.21-0.461-0.272-0.841-0.284-1.097c-0.015-0.126,0-0.227-0.003-0.292
			c0.001-0.065,0.001-0.098,0.001-0.098s0.006,0.077,0.016,0.221c0,0.074,0.019,0.161,0.037,0.266
			c0.012,0.107,0.05,0.223,0.087,0.357c0.087,0.262,0.222,0.583,0.464,0.91c0.24,0.326,0.587,0.655,1.047,0.908
			c0.227,0.135,0.488,0.226,0.767,0.31c0.282,0.062,0.585,0.12,0.904,0.106c0.638,0.002,1.326-0.191,1.941-0.595
			c0.313-0.196,0.588-0.463,0.837-0.762c0.058-0.078,0.127-0.15,0.178-0.234l0.161-0.251c0.092-0.177,0.191-0.355,0.258-0.548
			C15.468,93.043,15.505,92.146,15.269,91.298z"/>
	</g>
	<g style="clip-path:url(#SVGID_00000176007767043542400150000007336085128357325971_);">
		<path style="fill:#4FC1E9;" d="M11.182,44.514c-1.259,1.156-3.216,1.073-4.372-0.185c-1.156-1.259-1.073-3.216,0.185-4.372
			c1.259-1.156,3.216-1.073,4.372,0.186C12.524,41.4,12.44,43.358,11.182,44.514z"/>
		<path style="fill:#261605;" d="M6.645,40.452c-0.294,0.352-0.489,0.759-0.597,1.167c-0.108,0.409-0.126,0.822-0.076,1.205
			c0.051,0.384,0.167,0.74,0.33,1.051c0.166,0.309,0.369,0.576,0.59,0.8c0.451,0.44,0.964,0.702,1.433,0.833
			c0.473,0.129,0.901,0.143,1.26,0.108c0.721-0.086,1.162-0.319,1.436-0.465c0.07-0.037,0.13-0.07,0.183-0.098
			c0.05-0.031,0.094-0.057,0.132-0.077c0.076-0.04,0.13-0.059,0.171-0.062c0.061-0.004,0.088,0.033,0.048,0.127
			c-0.042,0.091-0.14,0.253-0.371,0.446c-0.227,0.191-0.585,0.434-1.135,0.587c-0.275,0.068-0.593,0.13-0.954,0.123
			c-0.18,0.006-0.37-0.02-0.568-0.044c-0.098-0.021-0.198-0.042-0.301-0.063c-0.103-0.022-0.205-0.061-0.31-0.093l-0.107-0.035
			l-0.104-0.044l-0.206-0.091c-0.135-0.065-0.264-0.142-0.393-0.218c-0.249-0.167-0.487-0.353-0.69-0.571
			c-0.411-0.43-0.72-0.956-0.889-1.518c-0.165-0.563-0.189-1.155-0.087-1.711c0.099-0.557,0.342-1.073,0.67-1.499
			c0.329-0.427,0.746-0.76,1.197-0.984c0.452-0.225,0.94-0.328,1.404-0.332c0.465-0.003,0.908,0.095,1.293,0.265
			c0.386,0.17,0.714,0.413,0.969,0.689c0.512,0.557,0.74,1.22,0.747,1.782c0.007,0.281-0.023,0.54-0.092,0.766
			c-0.007,0.028-0.015,0.056-0.022,0.084c-0.009,0.027-0.02,0.054-0.03,0.08c-0.019,0.052-0.038,0.102-0.057,0.152
			c-0.05,0.095-0.086,0.186-0.138,0.265c-0.196,0.321-0.403,0.517-0.556,0.632c-0.071,0.061-0.14,0.094-0.178,0.123
			c-0.04,0.027-0.061,0.04-0.061,0.04s0.045-0.035,0.129-0.102c0.046-0.031,0.091-0.079,0.148-0.134
			c0.061-0.052,0.116-0.123,0.183-0.202c0.125-0.163,0.266-0.379,0.366-0.664c0.1-0.283,0.158-0.633,0.122-1.021
			c-0.011-0.196-0.065-0.394-0.129-0.6c-0.079-0.199-0.17-0.409-0.311-0.599c-0.264-0.393-0.669-0.735-1.173-0.945
			c-0.251-0.11-0.529-0.168-0.816-0.197c-0.072-0.003-0.145-0.015-0.218-0.012l-0.221,0.005c-0.147,0.017-0.297,0.031-0.444,0.07
			C7.634,39.603,7.067,39.953,6.645,40.452z"/>
	</g>
	<g style="clip-path:url(#SVGID_00000176007767043542400150000007336085128357325971_);">
		<path style="fill:#5BE7C4;" d="M91.065,84.57c-2.048,1.978-5.311,1.922-7.289-0.126c-1.978-2.048-1.922-5.311,0.126-7.289
			c2.048-1.978,5.311-1.922,7.289,0.126C93.169,79.329,93.113,82.592,91.065,84.57z"/>
		<path style="fill:#261605;" d="M83.34,77.996c-0.474,0.599-0.783,1.284-0.945,1.969c-0.162,0.686-0.176,1.374-0.075,2.01
			c0.101,0.637,0.309,1.226,0.594,1.736c0.29,0.508,0.639,0.943,1.016,1.307c0.77,0.714,1.634,1.129,2.422,1.328
			c0.793,0.195,1.507,0.2,2.104,0.127c1.197-0.174,1.921-0.579,2.372-0.834c0.114-0.065,0.214-0.122,0.3-0.171
			c0.082-0.054,0.154-0.098,0.217-0.133c0.125-0.07,0.214-0.104,0.283-0.111c0.102-0.01,0.147,0.051,0.085,0.209
			c-0.066,0.154-0.222,0.427-0.599,0.757c-0.371,0.328-0.957,0.747-1.865,1.026c-0.454,0.124-0.981,0.242-1.583,0.245
			c-0.3,0.017-0.616-0.017-0.947-0.049c-0.164-0.03-0.332-0.061-0.505-0.093c-0.172-0.032-0.343-0.092-0.52-0.142l-0.179-0.054
			l-0.174-0.069l-0.347-0.142c-0.227-0.103-0.446-0.226-0.664-0.347c-0.422-0.268-0.825-0.567-1.173-0.922
			c-0.703-0.698-1.238-1.563-1.544-2.491c-0.299-0.931-0.364-1.916-0.216-2.845c0.141-0.932,0.525-1.801,1.053-2.524
			c0.53-0.725,1.21-1.297,1.953-1.689c0.743-0.393,1.552-0.585,2.324-0.611c0.774-0.025,1.516,0.119,2.165,0.388
			c0.65,0.268,1.206,0.658,1.643,1.107c0.877,0.905,1.284,2,1.319,2.937c0.023,0.468-0.016,0.901-0.122,1.279
			c-0.011,0.047-0.022,0.094-0.033,0.14c-0.014,0.046-0.031,0.09-0.046,0.134c-0.03,0.087-0.06,0.172-0.089,0.255
			c-0.078,0.16-0.136,0.313-0.218,0.448c-0.312,0.543-0.65,0.878-0.899,1.075c-0.116,0.105-0.229,0.163-0.291,0.212
			c-0.066,0.046-0.1,0.07-0.1,0.07s0.073-0.061,0.21-0.175c0.075-0.053,0.148-0.135,0.24-0.229c0.099-0.089,0.189-0.21,0.297-0.345
			c0.201-0.276,0.427-0.642,0.581-1.12c0.155-0.476,0.236-1.061,0.16-1.706c-0.027-0.325-0.124-0.653-0.239-0.994
			c-0.141-0.327-0.3-0.674-0.543-0.985c-0.456-0.643-1.145-1.196-1.994-1.524c-0.422-0.173-0.888-0.258-1.368-0.294
			c-0.12-0.002-0.242-0.019-0.363-0.01l-0.368,0.018c-0.243,0.035-0.494,0.063-0.736,0.135
			C84.951,76.541,84.022,77.148,83.34,77.996z"/>
	</g>
</g>
</svg>
