<svg xmlns="http://www.w3.org/2000/svg" width="512" height="512" id="beauty-tools">
  <path d="M300.686 477.111C287.518 472.093 282.278 458.565 275.635 447.25L260.203 421.12C256.478 428.378 251.92 435.261 247.825 442.321L240.103 455.915C237.189 461.119 234.457 466.359 230.239 470.663C212.453 488.813 179.204 471.532 186.435 446.137C187.595 442.064 189.759 438.219 191.746 434.5L227.547 368.094L107.226 171.842C103.901 166.125 105.008 165.904 99.3675 162.574L45.2955 125.179C26.7297 110.692 8.68536 91.2482 24.9746 67.7964C44.0994 40.2621 95.2326 24.0764 127.808 33.9466C145.992 39.4562 144.859 50.0573 146.413 66.8936L151.337 126.854C151.481 129.139 151.473 131.54 151.873 133.793L151.935 134.125C153.125 140.887 160.555 148.36 164.47 153.907L191.274 194.81C192.162 196.218 195.285 200.465 195.664 201.615L195.768 179.351C195.775 168.172 195.784 166.086 191.947 155.486L163.132 83.5893C157.786 71.5628 159.367 66.9789 168.935 57.1415C184.979 40.6452 207.004 30.9542 230.03 30.6663C252.046 30.7782 270.076 36.4017 287.665 50.4341C293.511 55.0977 305.659 66.3645 305.382 74.3047C305.304 76.5432 304.234 78.7937 303.482 80.8864L273.166 157.193C270.193 164.075 268.483 166.278 268.453 173.747L268.428 304.918C268.437 308.746 268.293 312.629 268.715 316.437C270.585 314.458 271.761 311.989 272.975 309.583L356.897 153.874C359.402 149.431 362.45 144.988 364.465 140.316C366.499 135.599 367.553 130.332 369.294 125.468L391.681 68.2412C395.068 60.1412 397.027 51.4426 407.949 57.3859L466.592 88.8596C477.711 94.9159 484.509 97.3405 473.169 110.422L428.12 161.654C420.752 169.668 416.984 175.424 411.224 184.667L298.614 371.192C296.366 374.902 295.88 373.598 297.832 377.184L325.631 428.923C328.423 434.19 332.222 439.38 333.865 445.125C339.736 465.642 320.375 483.045 300.686 477.111ZM228.418 46.356C209.823 47.7072 190.535 55.834 178.208 70.1811C177.413 71.1071 176.355 72.2894 175.928 73.4442L209.097 156.917C210.392 156.949 211.972 157.148 213.237 156.958L208.731 103.124C208.679 101.559 208.54 99.8534 208.721 98.3032C209.69 89.9781 222.317 88.9599 224.324 102L228.554 156.516C231.125 156.927 234.27 156.631 236.903 156.633L237.216 154.038C237.749 148.188 238.856 142.829 239.723 137.5L243.395 114.273C244.227 109.212 244.294 103.711 245.586 98.773C247.231 92.4921 255.063 90.1075 259.389 95.55C262.186 99.0693 260.323 108.277 259.693 112.475L253.23 151.875C253.01 153.501 252.62 155.339 252.817 156.975C257.293 159.686 259.725 149.269 260.663 146.876L288.933 75.3833C289.383 74.0256 288.729 73.7539 287.903 72.7119L284.875 69.1759C272.478 55.5527 247.451 43.9686 228.418 46.356ZM105.056 46.8567C85.2493 47.9525 66.6368 53.4999 50.4343 65.1741C30.4073 79.6039 28.6714 89.7535 47.5218 106.562L84.7058 133.751L100.215 144.45C104.424 147.332 109.055 150.197 112.872 153.59C115.819 151.611 135.086 140.601 135.71 138.668C135.954 137.911 135.758 136.583 135.75 135.743L130.1 57.9973C129.912 56.4384 129.796 53.576 128.861 52.303C126.422 48.9822 118.245 47.4709 114.269 47.1162L105.056 46.8567ZM406.044 74.0832L381.531 137.328L413.003 155.175L423.143 143.926L458.894 102.779L406.044 74.0832ZM375.65 152.181L275.469 337.466L283.612 352.226C284.878 354.502 286.264 357.991 288.034 359.814L293.638 350.146L403.296 168.068L375.65 152.181ZM143.857 152.625C137.438 157.994 129.514 162.163 121.857 165.456C125.762 173.018 130.638 180.261 135.022 187.565L293.847 447.101C296.231 451.137 298.415 455.409 301.302 459.11C307.911 466.11 318.98 461.296 319.302 452.724C319.475 448.089 313.877 439.964 311.513 435.75L272.721 364.499L175.017 198.152L143.857 152.625ZM232.002 172.378L211.373 172.38L211.428 206.732C211.429 213.042 210.969 219.678 211.8 225.918L211.859 226.42C212.442 231.18 217.818 238.516 220.229 242.707L245.044 285.618L250.691 295.368C251.272 296.401 252.109 297.426 252.547 298.503L252.752 172.336L232.002 172.378ZM237.073 383.068L206.521 439.415C204.075 443.961 200.159 449.954 201.838 455.343C203.538 460.8 209.694 463.54 215.012 462.285C220.532 459.87 223.36 453.72 226.192 448.778L243.822 418.645C246.301 414.472 248.905 410.212 250.902 405.784L237.073 383.068Z"></path>
</svg>
